<?xml version="1.0" encoding="UTF-8"?>
<svg id="Layer_1" data-name="Layer 1" xmlns="http://www.w3.org/2000/svg" version="1.1" viewBox="0 0 211.36684 250">
  <defs>
    <style>
      .cls-1 {
        fill: #f7f9e4;
        stroke-width: 0px;
      }
    </style>
  </defs>
  <path id="path-01" class="cls-1" d="M75.36891,74.24221c0-8.30161,6.75431-15.05592,15.05592-15.05592h39.65764v-28.02646h-25.78834c-1.96966,0-3.56367-1.57829-3.60214-3.5387h-53.90761c-1.99375,0-3.60919-1.61544-3.60919-3.60919s1.61544-3.60919,3.60919-3.60919h53.90056V0H0v183.5965h75.36891v-109.35429ZM46.78439,39.79393h66.5997c1.99375,0,3.60919,1.61544,3.60919,3.60919s-1.61544,3.60919-3.60919,3.60919H46.78439c-1.99375,0-3.60919-1.61544-3.60919-3.60919s1.61544-3.60919,3.60919-3.60919ZM46.78439,59.18629h20.64829c1.99375,0,3.60919,1.61544,3.60919,3.60919s-1.61544,3.60919-3.60919,3.60919h-20.64829c-1.99375,0-3.60919-1.61544-3.60919-3.60919s1.61544-3.60919,3.60919-3.60919ZM14.89027,39.61535c1.05151-1.69298,3.27553-2.2158,4.97086-1.16194.83886.52164,2.54241,1.04916,4.17313,1.04916.05023,0,.09281-.0072.14216-.00808.04758-.00191.09281-.01425.14098-.01425.01351,0,.02585.00382.03906.00397,1.09233-.04494,1.9541-.30018,2.37059-.73591.09164-.09634.37126-.39006.33719-1.12435-.03525-.76249-.07519-1.62602-3.40359-2.8608-2.40848-.8929-8.04902-2.98416-8.33451-9.08995-.10574-2.29922.69435-4.46567,2.25457-6.09991,1.24213-1.30058,2.92659-2.16337,4.85338-2.57913v-.95487c0-1.99375,1.61544-3.60919,3.60919-3.60919s3.60919,1.61544,3.60919,3.60919v1.37929c.94489.30326,1.71384.64177,2.2017.907,1.75055.95282,2.3979,3.14394,1.44626,4.89567-.95282,1.75055-3.14512,2.39555-4.89567,1.44626-.32309-.17623-1.52498-.75074-3.40007-.75074-1.01039,0-1.814.2338-2.20288.6403-.07049.07519-.28667.30077-.26435.78129.0235.49697.06227,1.33347,3.63269,2.65755,3.3519,1.24183,7.83871,3.5575,8.10541,9.2932.11396,2.46135-.71197,4.74999-2.32741,6.44297-.82828.8672-2.11887,1.83705-4.02157,2.43065v1.21731c0,1.99375-1.61544,3.60919-3.60919,3.60919s-3.60919-1.61544-3.60919-3.60919v-1.04769c-1.71648-.3598-3.36423-.94445-4.656-1.74615-1.69298-1.05151-2.21345-3.2767-1.16194-4.97086ZM31.30786,163.36177h-15.54937c-1.99375,0-3.60919-1.61544-3.60919-3.60919s1.61544-3.60919,3.60919-3.60919h15.54937c1.99375,0,3.60919,1.61544,3.60919,3.60919s-1.61544,3.60919-3.60919,3.60919ZM31.30786,143.96941h-15.54937c-1.99375,0-3.60919-1.61544-3.60919-3.60919s1.61544-3.60919,3.60919-3.60919h15.54937c1.99375,0,3.60919,1.61544,3.60919,3.60919s-1.61544,3.60919-3.60919,3.60919ZM31.30786,124.57822h-15.54937c-1.99375,0-3.60919-1.61544-3.60919-3.60919s1.61544-3.60919,3.60919-3.60919h15.54937c1.99375,0,3.60919,1.61544,3.60919,3.60919s-1.61544,3.60919-3.60919,3.60919ZM31.30786,105.18704h-15.54937c-1.99375,0-3.60919-1.61544-3.60919-3.60919s1.61544-3.60919,3.60919-3.60919h15.54937c1.99375,0,3.60919,1.61544,3.60919,3.60919s-1.61544,3.60919-3.60919,3.60919ZM31.30786,85.79586h-15.54937c-1.99375,0-3.60919-1.61544-3.60919-3.60919s1.61544-3.60919,3.60919-3.60919h15.54937c1.99375,0,3.60919,1.61544,3.60919,3.60919s-1.61544,3.60919-3.60919,3.60919ZM31.30786,66.40467h-15.54937c-1.99375,0-3.60919-1.61544-3.60919-3.60919s1.61544-3.60919,3.60919-3.60919h15.54937c1.99375,0,3.60919,1.61544,3.60919,3.60919s-1.61544,3.60919-3.60919,3.60919ZM67.43268,163.36177h-20.64829c-1.99375,0-3.60919-1.61544-3.60919-3.60919s1.61544-3.60919,3.60919-3.60919h20.64829c1.99375,0,3.60919,1.61544,3.60919,3.60919s-1.61544,3.60919-3.60919,3.60919ZM67.43268,143.96941h-20.64829c-1.99375,0-3.60919-1.61544-3.60919-3.60919s1.61544-3.60919,3.60919-3.60919h20.64829c1.99375,0,3.60919,1.61544,3.60919,3.60919s-1.61544,3.60919-3.60919,3.60919ZM67.43268,124.57822h-20.64829c-1.99375,0-3.60919-1.61544-3.60919-3.60919s1.61544-3.60919,3.60919-3.60919h20.64829c1.99375,0,3.60919,1.61544,3.60919,3.60919s-1.61544,3.60919-3.60919,3.60919ZM67.43268,105.18704h-20.64829c-1.99375,0-3.60919-1.61544-3.60919-3.60919s1.61544-3.60919,3.60919-3.60919h20.64829c1.99375,0,3.60919,1.61544,3.60919,3.60919s-1.61544,3.60919-3.60919,3.60919ZM67.43268,85.79586h-20.64829c-1.99375,0-3.60919-1.61544-3.60919-3.60919s1.61544-3.60919,3.60919-3.60919h20.64829c1.99375,0,3.60919,1.61544,3.60919,3.60919s-1.61544,3.60919-3.60919,3.60919ZM107.90333.21618l22.38328,23.72527h-22.38328V.21618ZM90.42483,66.40467c-4.32116,0-7.83754,3.51638-7.83754,7.83754v167.92025c0,4.32116,3.51638,7.83754,7.83754,7.83754h113.10447c4.32116,0,7.83754-3.51638,7.83754-7.83754V74.24221c0-4.32116-3.51638-7.83754-7.83754-7.83754h-113.10447ZM135.23956,176.74571v-12.98067c0-1.80695,1.46477-3.27186,3.27171-3.27186h16.93189c1.80695,0,3.27171,1.46491,3.27171,3.27186v12.98067c0,1.80709-1.46477,3.27201-3.27171,3.27201h-16.93189c-1.80695,0-3.27171-1.46491-3.27171-3.27201ZM155.44316,148.31274h-16.93189c-1.80695,0-3.27171-1.46491-3.27171-3.27186v-12.98067c0-1.80709,1.46477-3.27201,3.27171-3.27201h16.93189c1.80695,0,3.27171,1.46491,3.27171,3.27201v12.98067c0,1.80695-1.46477,3.27186-3.27171,3.27186ZM102.80852,114.04671c-2.11241,0-3.82507-1.71266-3.82507-3.82522v-11.79699c0-2.11271,1.71266-3.82537,3.82507-3.82537h88.33709c2.11241,0,3.82537,1.71266,3.82537,3.82537v11.79699c0,2.11256-1.71296,3.82522-3.82537,3.82522h-88.33709ZM102.24928,128.78821h16.9316c1.80724,0,3.27201,1.46491,3.27201,3.27201v12.98067c0,1.80695-1.46477,3.27186-3.27201,3.27186h-16.9316c-1.80695,0-3.27201-1.46491-3.27201-3.27186v-12.98067c0-1.80709,1.46506-3.27201,3.27201-3.27201ZM102.24928,160.49318h16.9316c1.80724,0,3.27201,1.46491,3.27201,3.27186v12.98067c0,1.80709-1.46477,3.27201-3.27201,3.27201h-16.9316c-1.80695,0-3.27201-1.46491-3.27201-3.27201v-12.98067c0-1.80695,1.46506-3.27186,3.27201-3.27186ZM122.45289,195.47001v12.98067c0,1.80709-1.46477,3.27201-3.27201,3.27201h-16.9316c-1.80695,0-3.27201-1.46491-3.27201-3.27201v-12.98067c0-1.80695,1.46506-3.27186,3.27201-3.27186h16.9316c1.80724,0,3.27201,1.46491,3.27201,3.27186ZM130.5724,237.31936h-24.88663c-3.70494,0-6.70849-3.0034-6.70849-6.7082s3.00355-6.70805,6.70849-6.70805h24.88663c3.70465,0,6.7079,3.00325,6.7079,6.70805s-3.00325,6.7082-6.7079,6.7082ZM138.51127,211.72268c-1.80695,0-3.27171-1.46491-3.27171-3.27201v-12.98067c0-1.80695,1.46477-3.27186,3.27171-3.27186h16.93189c1.80695,0,3.27171,1.46491,3.27171,3.27186v12.98067c0,1.80709-1.46477,3.27201-3.27171,3.27201h-16.93189ZM188.26895,237.31936h-24.88692c-3.70465,0-6.7082-3.0034-6.7082-6.7082s3.00355-6.70805,6.7082-6.70805h24.88692c3.70465,0,6.7079,3.00325,6.7079,6.70805s-3.00325,6.7082-6.7079,6.7082ZM194.97686,208.45067c0,1.80709-1.46506,3.27201-3.27201,3.27201h-16.9316c-1.80695,0-3.27201-1.46491-3.27201-3.27201v-12.98067c0-1.80695,1.46506-3.27186,3.27201-3.27186h16.9316c1.80695,0,3.27201,1.46491,3.27201,3.27186v12.98067ZM194.97686,176.74571c0,1.80709-1.46506,3.27201-3.27201,3.27201h-16.9316c-1.80695,0-3.27201-1.46491-3.27201-3.27201v-12.98067c0-1.80695,1.46506-3.27186,3.27201-3.27201h16.9316c1.80695,0,3.27201,1.46491,3.27201,3.27186v12.98067ZM194.97686,145.04089c0,1.80695-1.46506,3.27186-3.27201,3.27201h-16.9316c-1.80695,0-3.27201-1.46491-3.27201-3.27186v-12.98067c0-1.80709,1.46506-3.27201,3.27201-3.27201h16.9316c1.80695,0,3.27201,1.46491,3.27201,3.27201v12.98067ZM205.94835,80.73335c0,1.99375-1.61544,3.60919-3.60919,3.60919h-110.72536c-1.99375,0-3.60919-1.61544-3.60919-3.60919s1.61544-3.60919,3.60919-3.60919h110.72536c1.99375,0,3.60919,1.61544,3.60919,3.60919Z"/>
</svg>
